{"title":"Body of Lies 2008 720p BRRip x264 MP4 Multisubs AAC-CC","uid":10605193,"size":2765089942,"categoryP":"video","categoryS":"hd___movies","magnet":"?xt=urn:btih:4580d259573b9773b264b6b030b16f23acc704b7&amp;dn=Body+of+Lies+2008+720p+BRRip+x264+MP4+Multisubs+AAC-CC&amp;tr=udp%3A%2F%2Ftracker.openbittorrent.com%3A80&amp;tr=udp%3A%2F%2Fopen.demonii.com%3A1337&amp;tr=udp%3A%2F%2Ftracker.coppersurfer.tk%3A6969&amp;tr=udp%3A%2F%2Fexodus.desync.com%3A6969","seeders":2,"leechers":2,"uploader":"Caveman44","files":-1,"time":1405977844,"description":"[img]http://s22.postimg.org/i6s8k80td/Body_Of_Lies_Bluray_320x200.jpg[/img]\n &lt;a href=&quot;\nhttp://www.imdb.com/title/tt0758774&quot; rel=&quot;nofollow&quot; target=&quot;_NEW&quot;&gt;\nhttp://www.imdb.com/title/tt0758774&lt;/a&gt;\n\nSource: Body.of.Lies.720p.Bluray.x264-SEPTiC Thanks!\n\nSubs: Albanian, Arabic, Brazilian, Danish, Dutch, English, Farsi Persian, French, Greek, Indonesian, Portuguese, Romanian, Servian, Spanish, Thai, Turkish, Vietnamese.\n\nEnglish Hardcoded subs when needed.\n\nSample and Screens included.\n\nGeneral\nComplete name                            : Body of Lies 2008 720p BRRip x264 MP4 Multisubs AAC-CC.mp4\nFormat                                   : MPEG-4\nFormat profile                           : Base Media\nCodec ID                                 : isom\nFile size                                : 2.54 GiB\nDuration                                 : 2h 8mn\nOverall bit rate mode                    : Variable\nOverall bit rate                         : 2 837 Kbps\nEncoded date                             : UTC 2014-07-19 18:17:16\nTagged date                              : UTC 2014-07-19 18:17:16\nWriting application                      : Yamb 2.1.0.0 \n\nVideo\nID                                       : 1\nFormat                                   : AVC\nFormat/Info                              : Advanced Video Codec\nFormat profile                           : &lt;a class=&quot;__cf_email__&quot; href=&quot;/cdn-cgi/l/email-protection&quot; data-cfemail=&quot;064e6f616e464a322837&quot;&gt;[email&amp;#160;protected]&lt;/a&gt;&lt;script cf-hash='f9e31' type=&quot;text/javascript&quot;&gt;\n/* &lt;![CDATA[ */!function(){try{var t=&quot;currentScript&quot;in document?document.currentScript:function(){for(var t=document.getElementsByTagName(&quot;script&quot;),e=t.length;e--;)if(t[e].getAttribute(&quot;cf-hash&quot;))return t[e]}();if(t&amp;&amp;t.previousSibling){var e,r,n,i,c=t.previousSibling,a=c.getAttribute(&quot;data-cfemail&quot;);if(a){for(e=&quot;&quot;,r=parseInt(a.substr(0,2),16),n=2;a.length-n;n+=2)i=parseInt(a.substr(n,2),16)^r,e+=String.fromCharCode(i);e=document.createTextNode(e),c.parentNode.replaceChild(e,c)}}}catch(u){}}();/* ]]&gt; */&lt;/script&gt;\nFormat settings, CABAC                   : Yes\nFormat settings, ReFrames                : 5 frames\nCodec ID                                 : avc1\nCodec ID/Info                            : Advanced Video Coding\nDuration                                 : 2h 8mn\nBit rate                                 : 2 488 Kbps\nMaximum bit rate                         : 19.2 Mbps\nWidth                                    : 1 280 pixels\nHeight                                   : 536 pixels\nDisplay aspect ratio                     : 2.40:1\nFrame rate mode                          : Variable\nFrame rate                               : 23.976 fps\nMinimum frame rate                       : 15.873 fps\nMaximum frame rate                       : 24.390 fps\nColor space                              : YUV\nChroma subsampling                       : 4:2:0\nBit depth                                : 8 bits\nScan type                                : Progressive\nBits/(Pixel*Frame)                       : 0.151\nStream size                              : 2.19 GiB (86%)\nWriting library                          : x264 core 112\nEncoding settings                        : cabac=1 / ref=5 / deblock=1:0:0 / analyse=0x3:0x113 / me=hex / subme=7 / psy=1 / psy_rd=1.00:0.00 / mixed_ref=1 / me_range=16 / chroma_me=1 / trellis=1 / 8x8dct=1 / cqm=0 / deadzone=21,11 / fast_pskip=1 / chroma_qp_offset=-2 / threads=3 / sliced_threads=0 / nr=0 / decimate=1 / interlaced=0 / constrained_intra=0 / bframes=5 / b_pyramid=2 / b_adapt=2 / b_bias=0 / direct=1 / weightb=1 / open_gop=0 / weightp=2 / keyint=240 / keyint_min=23 / scenecut=40 / intra_refresh=0 / rc_lookahead=50 / rc=abr / mbtree=1 / bitrate=2488 / ratetol=1.0 / qcomp=0.60 / qpmin=3 / qpmax=51 / qpstep=4 / ip_ratio=1.40 / aq=1:1.00\nEncoded date                             : UTC 2014-02-24 05:34:17\nTagged date                              : UTC 2014-07-19 18:21:30\nColor primaries                          : BT.709\nTransfer characteristics                 : BT.709\nMatrix coefficients                      : BT.709\n\nAudio\nID                                       : 2\nFormat                                   : AAC\nFormat/Info                              : Advanced Audio Codec\nFormat profile                           : LC\nCodec ID                                 : 40\nDuration                                 : 2h 8mn\nBit rate mode                            : Variable\nBit rate                                 : 384 Kbps\nMaximum bit rate                         : 662 Kbps\nChannel(s)                               : 6 channels\nChannel positions                        : Front: L C R, Side: L R, LFE\nSampling rate                            : 48.0 KHz\nCompression mode                         : Lossy\nDelay relative to video                  : 83ms\nStream size                              : 352 MiB (14%)\nEncoded date                             : UTC 2014-07-19 18:20:43\nTagged date                              : UTC 2014-07-19 18:21:30\n\nEnjoy...\n\nRequested by Clair.\n\nComing soon: AVP, The Birdcage, Notorious and many more.\n\n[URL=http://imgbox.com/EHIdxoHu][IMG]http://t.imgbox.com/EHIdxoHu.jpg[/IMG][/URL] [URL=http://imgbox.com/2FkAkItc][IMG]http://t.imgbox.com/2FkAkItc.jpg[/IMG][/URL] [URL=http://imgbox.com/0NoEPOQO][IMG]http://t.imgbox.com/0NoEPOQO.jpg[/IMG][/URL]","torrent":{"xt":"urn:btih:4580d259573b9773b264b6b030b16f23acc704b7","amp;dn":"Body+of+Lies+2008+720p+BRRip+x264+MP4+Multisubs+AAC-CC","amp;tr":["udp%3A%2F%2Ftracker.openbittorrent.com%3A80","udp%3A%2F%2Fopen.demonii.com%3A1337","udp%3A%2F%2Ftracker.coppersurfer.tk%3A6969","udp%3A%2F%2Fexodus.desync.com%3A6969"],"infoHash":"4580d259573b9773b264b6b030b16f23acc704b7","infoHashBuffer":{"type":"Buffer","data":[69,128,210,89,87,59,151,115,178,100,182,176,48,177,111,35,172,199,4,183]},"announce":[],"urlList":[]}}